HIERARCHY
ROOT Hips
{
	OFFSET 56.877701 -32.693596 43.373703
	CHANNELS 6 Xposition Yposition Zposition Zrotation Xrotation Yrotation
	JOINT Chest
	{
		OFFSET -0.779999 1.005800 5.403099
		CHANNELS 6 Xposition Yposition Zposition Zrotation Xrotation Yrotation
		JOINT Chest2
		{
			OFFSET 0.000000 0.000000 4.236801
			CHANNELS 6 Xposition Yposition Zposition Zrotation Xrotation Yrotation
			JOINT Neck
			{
				OFFSET 0.000000 0.000000 9.874401
				CHANNELS 6 Xposition Yposition Zposition Zrotation Xrotation Yrotation
				JOINT Head
				{
					OFFSET 0.000000 0.000002 2.173893
					CHANNELS 6 Xposition Yposition Zposition Zrotation Xrotation Yrotation
					End Site
					{
						OFFSET 0.000000 0.000000 6.508102
					}
				}
			}
			JOINT LeftCollar
			{
				OFFSET 2.681599 -0.377600 5.432499
				CHANNELS 6 Xposition Yposition Zposition Zrotation Xrotation Yrotation
				JOINT LeftShoulder
				{
					OFFSET 5.161499 0.000000 0.000000
					CHANNELS 6 Xposition Yposition Zposition Zrotation Xrotation Yrotation
					JOINT LeftElbow
					{
						OFFSET 0.000000 0.000000 -10.869099
						CHANNELS 6 Xposition Yposition Zposition Zrotation Xrotation Yrotation
						JOINT LeftWrist
						{
							OFFSET 0.000000 0.000000 -13.344799
							CHANNELS 6 Xposition Yposition Zposition Zrotation Xrotation Yrotation
							End Site
							{
								OFFSET 0.000000 0.000000 -2.173901
							}
						}
					}
				}
			}
			JOINT RightCollar
			{
				OFFSET -2.381901 -1.419600 6.136600
				CHANNELS 6 Xposition Yposition Zposition Zrotation Xrotation Yrotation
				JOINT RightShoulder
				{
					OFFSET -4.550499 0.000000 0.000000
					CHANNELS 6 Xposition Yposition Zposition Zrotation Xrotation Yrotation
					JOINT RightElbow
					{
						OFFSET 0.000000 0.000000 -11.106499
						CHANNELS 6 Xposition Yposition Zposition Zrotation Xrotation Yrotation
						JOINT RightWrist
						{
							OFFSET 0.000000 0.000000 -12.874298
							CHANNELS 6 Xposition Yposition Zposition Zrotation Xrotation Yrotation
							End Site
							{
								OFFSET 0.000000 0.000000 -2.173901
							}
						}
					}
				}
			}
		}
	}
	JOINT LeftHip
	{
		OFFSET 2.431900 0.469601 -2.489399
		CHANNELS 6 Xposition Yposition Zposition Zrotation Xrotation Yrotation
		JOINT LeftKnee
		{
			OFFSET 0.000000 -0.000004 -18.200201
			CHANNELS 6 Xposition Yposition Zposition Zrotation Xrotation Yrotation
			JOINT LeftAnkle
			{
				OFFSET 0.000000 0.000000 -16.279900
				CHANNELS 6 Xposition Yposition Zposition Zrotation Xrotation Yrotation
				End Site
				{
					OFFSET 0.000000 -8.394100 0.000000
				}
			}
		}
	}
	JOINT RightHip
	{
		OFFSET -1.987999 -0.073502 -2.713001
		CHANNELS 6 Xposition Yposition Zposition Zrotation Xrotation Yrotation
		JOINT RightKnee
		{
			OFFSET 0.000000 -0.000004 -19.547802
			CHANNELS 6 Xposition Yposition Zposition Zrotation Xrotation Yrotation
			JOINT RightAnkle
			{
				OFFSET 0.000000 0.000000 -14.881199
				CHANNELS 6 Xposition Yposition Zposition Zrotation Xrotation Yrotation
				End Site
				{
					OFFSET 0.000000 -7.922699 0.000000
				}
			}
		}
	}
}
MOTION
Frames: 5
Frame Time: 0.041667
55.291401 -36.138996 47.239498 4984.383986 6.059129 -2.187962 -0.779983 1.005806 5.403097 10.790343 -10.590245 7.293168 -0.000004 -0.000003 4.236797 -2.111822 1.794150 0.279088 0.000006 0.000006 9.874391 40.000917 16.716536 -11.534379 0.000000 0.000005 2.173900 1.925661 2.942625 4.694983 2.681607 -0.377595 5.432491 10.437849 -10.621871 -19.091794 5.161504 -0.000008 0.000010 -217.873582 -138.066441 -301.901164 0.000004 0.000012 -10.869100 74.005400 -37.011053 103.178477 -0.000011 0.000003 -13.344805 19.262534 -21.705276 33.480641 -2.381889 -1.419598 6.136586 3.201605 -11.004526 33.287016 -4.550507 0.000000 -0.000006 -1236.266644 -520.638328 -431.286066 0.000006 -0.000013 -11.106490 589.398989 -56.644039 573.243789 -0.000003 -0.000004 -12.874296 -296.255330 0.538462 2.996156 2.431912 0.469607 -2.489399 8.717560 -9.312412 -5.784244 0.000006 -0.000005 -18.200203 18.210029 27.210410 -0.535457 0.000003 -0.000000 -16.279902 -23.165719 59.066445 -7.001055 -1.987985 -0.073503 -2.712995 -2.390906 -6.134350 2.253863 -0.000001 -0.000001 -19.547796 -1840.276337 17.822269 -2.998227 -0.000000 -0.000005 -14.881193 2167.030838 29.572329 -326.242264
55.201900 -36.131397 47.074406 4984.234050 6.254471 -2.215505 -0.780000 1.005806 5.403096 11.331287 -10.979065 7.447041 -0.000002 0.000000 4.236802 -2.328733 1.820929 0.282804 -0.000004 0.000010 9.874407 40.590998 16.398601 -11.681058 -0.000001 0.000003 2.173894 2.181778 2.730950 4.935021 2.681603 -0.377601 5.432515 10.548820 -10.196599 -18.492536 5.161505 0.000002 0.000002 -217.541266 -137.723074 -302.794088 -0.000008 0.000000 -10.869106 74.071530 -36.258831 102.397568 0.000000 -0.000003 -13.344792 18.828019 -21.814485 34.018515 -2.381897 -1.419597 6.136600 3.470648 -10.589863 33.214148 -4.550514 -0.000002 0.000003 -1237.603722 -521.377135 -432.202213 0.000005 -0.000010 -11.106496 588.254140 -58.505577 573.422029 -0.000007 0.000000 -12.874302 -296.193885 0.411455 3.334619 2.431901 0.469606 -2.489393 8.093790 -8.763491 -5.952856 -0.000003 -0.000005 -18.200205 19.062874 26.879822 -0.809827 -0.000005 0.000001 -16.279905 -24.154539 57.236142 -6.559373 -1.987998 -0.073495 -2.712996 -2.380840 -6.061426 2.272409 -0.000007 -0.000005 -19.547802 -1839.911113 18.133573 -3.290805 0.000000 0.000005 -14.881199 2167.475183 29.381350 -326.610193
55.113003 -36.125095 46.880604 4983.768941 6.440890 -2.215591 -0.779988 1.005797 5.403106 12.246636 -11.362847 7.581558 0.000001 -0.000004 4.236803 -2.691397 1.884634 0.286687 -0.000001 0.000002 9.874403 41.137481 16.128428 -11.755087 0.000006 0.000001 2.173901 2.150315 2.762058 5.000711 2.681602 -0.377600 5.432494 10.976851 -10.180455 -18.190424 5.161501 0.000006 0.000004 -217.320336 -137.111949 -303.240592 -0.000006 0.000007 -10.869080 73.889342 -35.406232 101.690677 0.000018 0.000004 -13.344793 18.155997 -21.985237 34.564869 -2.381902 -1.419602 6.136596 3.799259 -10.596534 33.424251 -4.550511 -0.000005 0.000009 -1238.593280 -521.850932 -433.289279 0.000003 -0.000006 -11.106483 587.809686 -60.248101 573.689008 0.000000 -0.000002 -12.874302 -296.378410 0.464343 3.723224 2.431903 0.469599 -2.489397 7.611124 -8.077973 -6.205102 -0.000005 -0.000011 -18.200205 19.952736 26.416947 -0.843310 0.000004 0.000003 -16.279905 -24.998033 55.468021 -5.682018 -1.987996 -0.073507 -2.713002 -2.129734 -6.058981 2.287042 -0.000002 -0.000001 -19.547798 -1839.549168 18.572364 -3.412601 -0.000003 0.000001 -14.881199 2167.837566 29.198625 -326.737125
55.025299 -36.107594 46.676506 4983.403936 6.615162 -2.310354 -0.780007 1.005797 5.403095 12.811766 -11.716614 7.729071 0.000002 -0.000002 4.236800 -2.717710 1.940238 0.296594 0.000007 0.000002 9.874397 41.636475 15.812156 -11.798224 0.000008 0.000009 2.173892 2.120754 2.711026 5.064911 2.681600 -0.377601 5.432495 11.130361 -9.992247 -17.900712 5.161514 0.000000 0.000006 -216.357157 -136.968529 -303.313866 -0.000010 -0.000003 -10.869099 74.489333 -34.621478 101.028279 -0.000003 -0.000004 -13.344802 17.223469 -22.042197 34.884221 -2.381900 -1.419610 6.136599 4.181838 -9.791683 33.572617 -4.550509 -0.000003 0.000005 -1239.975819 -521.766675 -434.031310 -0.000020 -0.000007 -11.106488 588.073277 -61.765927 574.474097 0.000007 0.000000 -12.874298 -296.219567 0.603784 3.961557 2.431894 0.469592 -2.489402 7.090665 -7.426464 -6.402145 0.000004 -0.000005 -18.200201 20.798735 26.017184 -0.825876 -0.000002 0.000002 -16.279900 -26.414092 53.742158 -3.776378 -1.988004 -0.073511 -2.713003 -2.057173 -6.070053 2.308073 -0.000003 0.000007 -19.547806 -1838.876421 18.992436 -3.481231 -0.000002 -0.000002 -14.881200 2168.379609 29.093064 -326.930065
54.918499 -36.069294 46.467602 4983.264928 6.564837 -2.279694 -0.779997 1.005803 5.403098 13.009213 -11.864705 7.715204 0.000004 0.000001 4.236803 -2.611141 1.992875 0.307658 -0.000003 0.000010 9.874398 42.219260 15.417509 -11.990628 0.000004 0.000007 2.173885 1.938094 2.775488 5.233025 2.681603 -0.377596 5.432505 11.076285 -9.862234 -17.751689 5.161498 -0.000008 0.000004 -214.824162 -137.121525 -303.084453 -0.000008 -0.000002 -10.869094 75.629230 -33.757800 100.493905 0.000013 0.000001 -13.344806 16.233707 -22.071242 35.439669 -2.381901 -1.419593 6.136592 4.264760 -9.345470 33.619728 -4.550504 -0.000002 0.000001 -1240.614797 -521.667118 -434.612395 -0.000002 -0.000014 -11.106486 590.199542 -63.466855 576.618121 0.000004 -0.000002 -12.874298 -296.012913 0.603159 4.221794 2.431910 0.469606 -2.489396 6.530324 -6.676584 -6.840973 0.000002 -0.000010 -18.200201 21.292691 25.784253 -0.635889 0.000001 0.000004 -16.279900 -27.037449 52.366207 -3.836990 -1.987997 -0.073500 -2.712996 -1.586411 -5.715221 2.149590 -0.000001 0.000007 -19.547798 -1838.661134 19.192439 -3.624064 -0.000002 0.000000 -14.881201 2168.794229 28.955040 -327.340805
